<svg width="96" height="48" viewBox="0 0 96 48" fill="none" xmlns="http://www.w3.org/2000/svg">
<path d="M7.48463 31.0546C7.48463 33.4028 7.69665 35.235 8.11269 36.5551C8.53272 37.8752 9.06476 38.8593 9.71682 39.5113C10.3649 40.1594 11.0689 40.5594 11.821 40.7074C12.5771 40.8554 13.2651 40.9274 13.8972 40.9274C12.9331 41.9315 12.177 42.9476 11.633 43.9757C11.0889 45.0038 10.6489 46.1239 10.3129 47.34C8.92875 46.6679 7.66864 45.9159 6.52855 45.0758C5.38845 44.2357 4.40437 43.1916 3.5803 41.9315C2.75623 40.6754 2.10818 39.1673 1.64414 37.4071C1.1801 35.647 0.94408 33.5308 0.94408 31.0586V2.95623C0.94408 2.16017 0.796065 1.51211 0.50404 1.00807C0.336026 0.756045 0.168014 0.528027 0 0.31601H8.42471C8.3007 0.528027 8.15269 0.756045 7.98467 1.00807C7.86066 1.22008 7.74465 1.49211 7.64064 1.82414C7.53663 2.16017 7.48463 2.5362 7.48463 2.95623V31.0546Z" fill="black"/>
<path d="M28.2744 29.5465C27.9824 29.2945 27.7183 29.1265 27.4863 29.0424C27.2543 28.9584 27.0143 28.9184 26.7623 28.9184C26.4262 28.9184 26.0902 28.9704 25.7582 29.0745C25.4221 29.1785 25.0341 29.3065 24.5941 29.4505C24.154 29.5985 23.65 29.7225 23.0859 29.8265C22.5219 29.9305 21.8378 29.9825 21.0418 29.9825C19.1576 29.9825 17.6455 29.6265 16.5174 28.9144C15.3853 28.2024 14.5052 27.3423 13.8772 26.3382C13.2491 25.3341 12.8291 24.286 12.6211 23.194C12.413 22.1059 12.305 21.1818 12.305 20.4297V9.4928C12.305 8.73674 12.409 7.82866 12.6211 6.75657C12.8291 5.68848 13.2491 4.65239 13.8772 3.64431C14.5052 2.64022 15.3853 1.78015 16.5174 1.06809C17.6495 0.356029 19.1576 0 21.0418 0C22.5899 0 23.778 0.180014 24.5941 0.536044C25.4101 0.892074 26.1142 1.07209 26.6983 1.07209C27.2423 1.07209 27.7663 0.84407 28.2704 0.380031V10.0608C27.9344 9.22478 27.4303 8.50072 26.7623 7.89266C26.0902 7.28461 25.3901 6.79257 24.6581 6.41654C23.926 6.04051 23.222 5.75649 22.5539 5.56847C21.8818 5.38045 21.3818 5.28444 21.0458 5.28444C20.5417 5.28444 20.1457 5.43246 19.8497 5.72448C19.5577 6.01651 19.3376 6.39654 19.1896 6.85658C19.0416 7.31662 18.9496 7.83266 18.9056 8.3967C18.8616 8.96075 18.8416 9.5168 18.8416 10.0608V19.3656C18.8416 19.9537 18.8496 20.5497 18.8736 21.1578C18.8936 21.7658 18.9776 22.3299 19.1256 22.8539C19.2736 23.378 19.4936 23.806 19.7857 24.142C20.0777 24.4781 20.4977 24.6461 21.0418 24.6461C21.3778 24.6461 21.8778 24.5501 22.5499 24.3621C23.218 24.174 23.922 23.89 24.6541 23.514C25.3861 23.138 26.0902 22.6459 26.7583 22.0379C27.4263 21.4298 27.9304 20.7097 28.2664 19.8697V29.5465H28.2744Z" fill="black"/>
<path d="M44.9958 24.142C45.7919 24.142 46.4399 23.994 46.944 23.702C47.196 23.578 47.424 23.43 47.636 23.2619V29.6105H32.0467C32.1707 29.4025 32.3187 29.1704 32.4867 28.9184C32.6108 28.7104 32.7268 28.4464 32.8308 28.1344C32.9348 27.8183 32.9868 27.4343 32.9868 26.9703V2.95623C32.9868 2.5362 32.9348 2.16017 32.8308 1.82414C32.7268 1.48811 32.6108 1.21608 32.4867 1.00807C32.3187 0.756045 32.1747 0.528027 32.0467 0.31601H40.2194C40.0514 0.528027 39.8834 0.756045 39.7153 1.00807C39.4233 1.51211 39.2753 2.16017 39.2753 2.95623V24.142H44.9958Z" fill="black"/>
<path d="M68.3818 1.00807C68.0897 1.51211 67.9417 2.16017 67.9417 2.95624V20.4337C67.9417 21.1898 67.8377 22.1098 67.6257 23.1979C67.4137 24.29 66.9977 25.3341 66.3696 26.3422C65.7415 27.3463 64.8615 28.2064 63.7294 28.9184C62.5973 29.6305 61.0892 29.9865 59.205 29.9865C57.3208 29.9865 55.8087 29.6305 54.6806 28.9184C53.5485 28.2064 52.6684 27.3463 52.0404 26.3422C51.4123 25.3381 50.9923 24.29 50.7843 23.1979C50.5763 22.1098 50.4723 21.1858 50.4723 20.4337V2.95624C50.4723 2.5362 50.4203 2.16017 50.3162 1.82414C50.2122 1.48811 50.0962 1.21608 49.9722 1.00807C49.8042 0.756045 49.6602 0.528027 49.5322 0.31601H57.9569C57.7889 0.528027 57.6209 0.756045 57.4528 1.00807C57.1608 1.51211 57.0128 2.16017 57.0128 2.95624V19.3616C57.0128 19.9497 57.0208 20.5457 57.0448 21.1538C57.0648 21.7618 57.1488 22.3259 57.2968 22.8499C57.4449 23.374 57.6649 23.802 57.9569 24.138C58.2489 24.4741 58.669 24.6421 59.213 24.6421C59.757 24.6421 60.1771 24.4741 60.4691 24.138C60.7611 23.802 60.9811 23.374 61.1292 22.8499C61.2772 22.3259 61.3572 21.7618 61.3812 21.1538C61.4012 20.5457 61.4132 19.9497 61.4132 19.3616V2.95624C61.4132 2.5362 61.3612 2.16017 61.2572 1.82414C61.1532 1.48811 61.0372 1.21608 60.9131 1.00807C60.7451 0.756045 60.6011 0.528027 60.4731 0.31601H68.8978C68.7138 0.524027 68.5458 0.756045 68.3818 1.00807Z" fill="black"/>
<path d="M81.0788 0.31601C82.419 0.31601 83.6671 0.43202 84.8192 0.660039C85.9713 0.892058 86.9753 1.31209 87.8354 1.91614C88.6955 2.5242 89.3635 3.35227 89.8476 4.40036C90.3276 5.44845 90.5716 6.78856 90.5716 8.4247C90.5716 10.0168 90.2476 11.3489 89.5956 12.417C88.9435 13.4851 88.0954 14.3332 87.0514 14.9612C89.5236 16.2614 91.5037 18.1375 92.9919 20.5857C94.48 23.0379 95.224 25.7702 95.224 28.7904C95.224 30.9266 94.824 32.9508 94.0279 34.8549C93.2319 36.7631 92.1518 38.4152 90.7917 39.8193C89.4276 41.2235 87.8354 42.3356 86.0153 43.1516C84.1911 43.9677 82.2309 44.3757 80.1388 44.3757C78.2106 44.3757 76.4505 44.1037 74.8583 43.5597C73.2662 43.0156 71.8421 42.3036 70.582 41.4235C69.3258 40.5434 68.2258 39.5673 67.2817 38.4992C66.3376 37.4311 65.5535 36.3711 64.9255 35.323C66.0976 34.9869 67.1977 34.5389 68.2258 33.9709C69.2538 33.4068 70.2899 32.5787 71.338 31.4866C71.462 32.3667 71.7581 33.2268 72.2181 34.0629C72.6781 34.8989 73.2862 35.667 74.0422 36.3591C74.7983 37.0511 75.6864 37.6072 76.7145 38.0232C77.7426 38.4432 78.8827 38.6512 80.1388 38.6512C81.3949 38.6512 82.567 38.4312 83.6591 37.9912C84.7472 37.5512 85.7032 36.8991 86.5193 36.043C87.3354 35.183 87.9754 34.1469 88.4355 32.9308C88.8955 31.7147 89.1275 30.3305 89.1275 28.7824C89.1275 27.2343 88.8955 25.7742 88.4355 24.414C87.9754 23.0539 87.3354 21.8578 86.5193 20.8297C85.7032 19.8017 84.7472 18.9976 83.6591 18.4095C82.567 17.8215 81.3949 17.5295 80.1388 17.5295V26.9583C80.1388 27.5863 80.2868 28.1944 80.5788 28.7824C80.7468 29.0744 80.9148 29.3465 81.0828 29.5985H72.7221C72.8461 29.3465 72.9942 29.0744 73.1622 28.7824C73.2462 28.5304 73.3382 28.2464 73.4462 27.9343C73.5502 27.6183 73.6022 27.2943 73.6022 26.9583V2.95623C73.6022 2.62021 73.5502 2.29618 73.4462 1.98015C73.3422 1.66412 73.2462 1.3841 73.1622 1.13208C72.9942 0.840057 72.8461 0.568031 72.7221 0.31601H81.0788ZM80.1348 13.2011C80.8908 13.2011 81.5189 13.0771 82.0189 12.8251C82.523 12.573 82.919 12.249 83.215 11.849C83.5071 11.453 83.7191 11.0129 83.8431 10.5289C83.9671 10.0488 84.0311 9.55279 84.0311 9.05275C84.0311 7.92065 83.7471 6.98858 83.183 6.25651C82.619 5.52445 81.5989 5.15642 80.1348 5.15642V13.2011Z" fill="black"/>
</svg>
