<svg width="273" height="209" viewBox="0 0 273 209" fill="none" xmlns="http://www.w3.org/2000/svg">
<path d="M4.128 159.143C2.881 159.143 1.8748 158.73 1.1008 157.905C0.3698 157.105 0 156.125 0 154.946C0 153.983 0.266599 153.123 0.7912 152.384C1.548 151.334 2.64881 150.81 4.08501 150.81C4.27421 150.81 4.46341 150.818 4.65261 150.836C5.49541 150.922 6.17481 151.162 6.68221 151.558C6.68221 151.343 6.69081 151.18 6.70801 151.076C6.75101 150.939 6.88001 150.879 7.08641 150.879L7.12941 153.39H6.77681C6.34681 151.936 5.47821 151.205 4.17101 151.188C3.70661 151.188 3.2852 151.3 2.9068 151.541C1.978 152.117 1.5136 153.252 1.5136 154.964C1.5136 155.609 1.5824 156.185 1.7114 156.701C2.0726 158.077 2.8724 158.773 4.1194 158.773C5.4696 158.765 6.37261 158.017 6.81981 156.52H7.17241V159.083C7.06921 159.083 6.98321 159.074 6.93161 159.057C6.80261 159.006 6.74241 158.791 6.74241 158.412C5.91681 158.885 5.04821 159.135 4.128 159.143Z" fill="black"/>
<path d="M9.99316 159.006V158.653H11.0682V151.291H9.99316V150.939H13.502V151.291H12.3582V158.653H14.1212C14.2502 158.653 14.3706 158.636 14.4824 158.61C14.9726 158.481 15.3252 158.025 15.5316 157.243L15.7896 156.279H16.082L16.0132 159.006H9.99316Z" fill="black"/>
<path d="M18.1204 150.947H21.5432V151.3H20.4854V155.918C20.4854 156.451 20.537 156.924 20.6488 157.311C20.9154 158.275 21.5862 158.765 22.6612 158.765C22.7214 158.765 22.7902 158.765 22.859 158.765C24.2178 158.67 24.9058 157.724 24.9058 155.944V151.291H23.8308V150.939H26.4538V151.291H25.3788V155.858C25.3788 156.391 25.3272 156.864 25.2154 157.268C24.8714 158.515 23.9254 159.135 22.3774 159.135C20.2704 159.126 19.2126 158.077 19.1954 155.987V151.283H18.1204V150.947Z" fill="black"/>
<path d="M35.0967 153.39C34.8645 153.966 34.4087 154.37 33.7293 154.611C34.0905 154.671 34.4087 154.783 34.6925 154.929C35.3977 155.308 35.7503 155.875 35.7503 156.649C35.7503 157.105 35.6127 157.526 35.3375 157.913C34.8043 158.636 33.9443 159.006 32.7833 159.006H28.8101V158.653H29.8851V151.291H28.8101V150.939H32.7059C33.2907 150.939 33.7895 151.033 34.2109 151.231C34.8903 151.558 35.2343 152.065 35.2343 152.762C35.2257 152.968 35.1827 153.175 35.0967 153.39ZM31.1751 151.291V154.448H32.2931C32.6199 154.448 32.9123 154.37 33.1703 154.215C33.6433 153.94 33.8841 153.493 33.8841 152.874C33.8841 152.771 33.8755 152.659 33.8583 152.547C33.7551 151.704 33.2305 151.283 32.3017 151.283H31.1751V151.291ZM31.1751 154.809V158.653H32.5855C32.9811 158.653 33.3165 158.541 33.6089 158.318C34.0819 157.939 34.3227 157.389 34.3227 156.649C34.3227 156.365 34.2711 156.09 34.1765 155.841C33.9099 155.153 33.3767 154.809 32.5769 154.809H31.1751Z" fill="black"/>
<path d="M44.6684 153.39L44.4534 152.702C44.4534 152.685 44.4448 152.667 44.4362 152.65C44.161 151.747 43.6708 151.291 42.9828 151.291H40.9532V154.654H43.6966V155.041H40.9532V158.653H42.9828C43.1204 158.653 43.2494 158.636 43.3698 158.601C43.8514 158.464 44.2126 158.017 44.4448 157.243L44.6598 156.555H44.9522L44.8834 158.997H38.5796V158.644H39.6546V151.283H38.5796V150.93H44.8834L44.9522 153.373H44.6684V153.39Z" fill="black"/>
<path d="M56.1152 150.947C57.044 150.947 57.861 151.162 58.5576 151.61C59.6842 152.323 60.2518 153.45 60.2518 154.981C60.2518 156.168 59.8734 157.131 59.108 157.871C58.3168 158.636 57.3106 159.014 56.0808 159.014H52.314V158.662H53.389V151.3H52.314V150.947H56.1152ZM54.6962 151.291V158.653H56.1238C57.9126 158.645 58.8156 157.397 58.8242 154.921C58.8242 154.25 58.7554 153.665 58.6264 153.175C58.2738 151.919 57.431 151.291 56.098 151.291H54.6962Z" fill="black"/>
<path d="M69.987 151.601C71.019 152.375 71.5351 153.493 71.5351 154.972C71.5351 156.228 71.1136 157.251 70.2708 158.051C69.4882 158.774 68.5594 159.143 67.4758 159.143C66.5126 159.143 65.6698 158.851 64.9216 158.266C63.924 157.466 63.4338 156.357 63.4338 154.921C63.4338 153.682 63.8552 152.676 64.698 151.885C65.4892 151.171 66.4266 150.81 67.5188 150.81C68.4476 150.81 69.2646 151.076 69.987 151.601ZM68.1295 158.696C69.3937 158.369 70.0215 157.114 70.0215 154.921C70.0129 152.452 69.1615 151.205 67.4672 151.188C67.3382 151.188 67.2092 151.197 67.0802 151.214C65.6354 151.403 64.913 152.659 64.913 154.972C64.913 155.136 64.913 155.299 64.9302 155.454C65.0334 157.656 65.8934 158.756 67.5103 158.756C67.7253 158.765 67.9317 158.739 68.1295 158.696Z" fill="black"/>
<path d="M22.3171 173.738C22.2311 173.738 22.1537 173.72 22.0849 173.695C21.9645 173.634 21.8269 173.368 21.6549 172.886L20.2187 168.879L18.4729 173.781H18.3267C18.2579 173.781 18.1891 173.763 18.1289 173.738C17.9827 173.677 17.8193 173.385 17.6301 172.878L15.1275 166.015H14.3621V165.662H17.4495V166.015H16.3573L18.6019 172.25L19.9865 168.259L19.0577 165.662H21.5173V166.015H20.4251L22.5751 172.233L24.6477 166.015H23.5727V165.662H25.7657V166.015H25.0949L22.4461 173.729H22.3171V173.738Z" fill="black"/>
<path d="M28.0532 173.738V173.385H29.1282V166.023H28.0532V165.671H31.4932V166.023H30.4182V169.386H34.4086V166.023H33.3336V165.671H36.7736V166.023H35.6986V173.385H36.421C36.464 173.385 36.507 173.394 36.5586 173.402C36.7048 173.428 36.7736 173.54 36.7736 173.738H33.3336V173.385H34.4086V169.773H30.4182V173.385H31.1406C31.1836 173.385 31.2266 173.394 31.2782 173.402C31.4244 173.428 31.4932 173.54 31.4932 173.738H28.0532Z" fill="black"/>
<path d="M39.543 173.738V173.385H40.618V166.023H39.543V165.671H42.983V166.023H41.908V173.385H42.6304C42.6734 173.385 42.7164 173.394 42.768 173.402C42.9142 173.428 42.983 173.54 42.983 173.738H39.543Z" fill="black"/>
<path d="M51.2734 173.041C50.6972 173.6 49.8974 173.875 48.8568 173.875C47.9624 173.875 47.1712 173.643 46.4746 173.187C46.4746 173.368 46.466 173.497 46.4488 173.574C46.4058 173.703 46.2768 173.763 46.0618 173.763V170.968H46.4918C46.5004 171.054 46.509 171.149 46.5176 171.252C46.724 172.749 47.4722 173.497 48.7708 173.497C49.0976 173.497 49.4072 173.437 49.6824 173.325C50.2758 173.058 50.5682 172.611 50.5682 171.983C50.5682 171.751 50.5166 171.536 50.4048 171.338C50.1898 170.96 49.6824 170.599 48.8826 170.237C48.014 169.842 47.5066 169.601 47.3518 169.515C46.5176 169.042 46.1048 168.423 46.1048 167.675C46.1048 167.167 46.2854 166.729 46.6552 166.359C47.197 165.826 47.9624 165.55 48.9428 165.55C49.7426 165.55 50.4736 165.722 51.1358 166.075C51.1358 165.989 51.1444 165.912 51.1616 165.843C51.1874 165.688 51.3164 165.611 51.5486 165.611V167.976H51.1186C51.1272 167.468 50.9982 167.038 50.7316 166.686C50.3446 166.178 49.7856 165.92 49.0374 165.92C48.7536 165.92 48.487 165.972 48.2462 166.066C47.6872 166.29 47.412 166.686 47.412 167.262C47.412 167.477 47.4636 167.683 47.5582 167.881C47.7646 168.251 48.2634 168.603 49.046 168.956C49.9232 169.352 50.4306 169.592 50.5768 169.678C51.4368 170.169 51.8668 170.814 51.8668 171.596C51.884 172.155 51.6776 172.637 51.2734 173.041Z" fill="black"/>
<path d="M54.8164 173.738V173.385H55.8914V166.023H54.8164V165.671H58.2564V166.023H57.1814V169.627L61.103 166.023H60.028V165.671H62.4618C62.4618 165.714 62.4532 165.757 62.4446 165.808C62.4274 165.955 62.3156 166.023 62.1092 166.023C62.0232 166.023 61.9372 166.032 61.8512 166.049C61.6878 166.092 61.4384 166.281 61.0944 166.6L58.7552 168.775L62.221 173.385H62.5478C62.5908 173.385 62.6338 173.394 62.6854 173.402C62.8316 173.428 62.9004 173.54 62.9004 173.738H60.8966L57.835 169.635L57.1728 170.255V173.385H57.8952C57.9382 173.385 57.9812 173.394 58.0328 173.402C58.179 173.428 58.2478 173.54 58.2478 173.738H54.8164Z" fill="black"/>
<path d="M66.7878 173.738V173.385H67.88V170.478L65.3688 166.015H64.655V165.662H67.8284V166.015H66.805L68.912 169.885L70.8986 166.015H69.8236V165.662H72.2145C72.2145 165.705 72.2058 165.748 72.1972 165.8C72.1714 165.946 72.0596 166.015 71.8618 166.015C71.5866 166.032 71.3458 166.161 71.148 166.393L69.1614 170.358V173.385H69.8838C70.0558 173.402 70.1762 173.523 70.245 173.738H66.7878Z" fill="black"/>
<path d="M243.183 152.59L242.968 151.902C242.968 151.885 242.959 151.868 242.951 151.851C242.675 150.948 242.185 150.492 241.497 150.492H239.468V153.854H242.211V154.241H239.468V157.853H241.497C241.635 157.853 241.764 157.836 241.884 157.802C242.366 157.664 242.727 157.217 242.959 156.443L243.174 155.755H243.467L243.398 158.197H237.094V157.845H238.169V150.483H237.094V150.148H243.398L243.467 152.59H243.183Z" fill="black"/>
<path d="M251.946 157.509C251.37 158.068 250.57 158.344 249.53 158.344C248.635 158.344 247.844 158.111 247.147 157.656C247.147 157.836 247.139 157.965 247.122 158.042C247.079 158.171 246.95 158.232 246.735 158.232V155.437H247.165C247.173 155.523 247.182 155.617 247.19 155.721C247.397 157.217 248.145 157.965 249.444 157.965C249.77 157.965 250.08 157.905 250.355 157.793C250.949 157.527 251.241 157.079 251.241 156.451C251.241 156.219 251.189 156.004 251.078 155.806C250.863 155.428 250.355 155.067 249.555 154.706C248.687 154.31 248.179 154.069 248.025 153.983C247.19 153.51 246.778 152.891 246.778 152.143C246.778 151.635 246.958 151.197 247.328 150.827C247.87 150.294 248.635 150.019 249.616 150.019C250.415 150.019 251.146 150.191 251.809 150.543C251.809 150.457 251.817 150.38 251.834 150.311C251.86 150.156 251.989 150.079 252.221 150.079V152.444H251.791C251.8 151.937 251.671 151.507 251.404 151.154C251.017 150.646 250.458 150.388 249.71 150.388C249.426 150.388 249.16 150.44 248.919 150.535C248.36 150.758 248.085 151.154 248.085 151.73C248.085 151.945 248.136 152.151 248.231 152.349C248.437 152.719 248.936 153.072 249.719 153.424C250.596 153.82 251.103 154.061 251.25 154.147C252.11 154.637 252.54 155.282 252.54 156.065C252.548 156.632 252.35 157.105 251.946 157.509Z" fill="black"/>
<path d="M256.874 158.206V157.853H258.147V150.492H257.527C256.779 150.5 256.289 150.965 256.04 151.876L255.782 152.831H255.403L255.472 150.148H262.18L262.232 152.831H261.853L261.595 151.876C261.355 150.965 260.864 150.5 260.116 150.492H259.428V157.853H260.357C260.4 157.853 260.443 157.862 260.495 157.871C260.641 157.896 260.71 158.008 260.71 158.206H256.874Z" fill="black"/>
<path d="M268.733 150.148C269.662 150.148 270.479 150.363 271.176 150.81C272.302 151.524 272.87 152.65 272.87 154.181C272.87 155.368 272.492 156.331 271.726 157.071C270.935 157.836 269.929 158.215 268.699 158.215H264.932V157.862H266.007V150.5H264.932V150.148H268.733ZM267.306 150.5V157.862H268.733C270.522 157.853 271.425 156.606 271.434 154.13C271.434 153.459 271.365 152.874 271.236 152.384C270.883 151.128 270.041 150.5 268.708 150.5H267.306Z" fill="black"/>
<path d="M240.775 171.923C240.973 171.923 241.127 171.914 241.231 171.897C241.471 171.846 241.643 171.656 241.755 171.33L241.97 170.633H242.237L242.211 172.946H237.025V172.654C237.025 172.362 237.085 172.078 237.197 171.82C237.386 171.398 237.808 170.968 238.461 170.53C239.158 170.065 239.554 169.799 239.648 169.721C240.388 169.128 240.766 168.406 240.766 167.563C240.766 167.399 240.749 167.245 240.723 167.107C240.577 166.385 240.13 166.015 239.382 166.015C239.098 166.015 238.874 166.083 238.719 166.212C238.547 166.367 238.444 166.677 238.393 167.15C238.375 167.339 238.358 167.477 238.341 167.563C238.264 167.941 238.04 168.13 237.67 168.13C237.601 168.13 237.524 168.113 237.455 168.087C237.18 167.984 237.042 167.752 237.042 167.374C237.042 166.969 237.197 166.617 237.515 166.316C237.997 165.877 238.659 165.654 239.502 165.654C239.966 165.654 240.388 165.722 240.766 165.869C241.618 166.178 242.039 166.754 242.039 167.589C242.039 168.113 241.815 168.621 241.368 169.094C240.998 169.481 240.319 169.962 239.321 170.53C239.038 170.702 238.831 170.822 238.702 170.908C238.057 171.304 237.739 171.639 237.739 171.914H240.775V171.923Z" fill="black"/>
<path d="M249.968 166.101C250.888 166.711 251.353 167.795 251.353 169.369C251.353 170.358 251.129 171.175 250.682 171.846C250.123 172.671 249.349 173.084 248.343 173.084C247.706 173.084 247.147 172.903 246.666 172.551C245.797 171.897 245.359 170.822 245.359 169.326C245.359 168.354 245.591 167.537 246.047 166.883C246.614 166.075 247.397 165.671 248.412 165.671C249.005 165.662 249.521 165.808 249.968 166.101ZM248.919 172.637C249.65 172.344 250.02 171.235 250.02 169.317C250.02 168.431 249.942 167.735 249.788 167.219C249.555 166.41 249.082 166.006 248.36 166.006C248.154 166.006 247.973 166.04 247.81 166.101C247.053 166.393 246.683 167.485 246.683 169.369C246.683 170.177 246.743 170.831 246.872 171.347C247.113 172.267 247.612 172.731 248.377 172.731C248.584 172.731 248.764 172.697 248.919 172.637Z" fill="black"/>
<path d="M257.889 171.923C258.087 171.923 258.241 171.914 258.345 171.897C258.585 171.846 258.757 171.656 258.869 171.33L259.084 170.633H259.351L259.325 172.946H254.139V172.654C254.139 172.362 254.199 172.078 254.311 171.82C254.5 171.398 254.922 170.968 255.575 170.53C256.272 170.065 256.668 169.799 256.762 169.721C257.502 169.128 257.88 168.406 257.88 167.563C257.88 167.399 257.863 167.245 257.837 167.107C257.691 166.385 257.244 166.015 256.496 166.015C256.212 166.015 255.988 166.083 255.833 166.212C255.661 166.367 255.558 166.677 255.507 167.15C255.489 167.339 255.472 167.477 255.455 167.563C255.378 167.941 255.154 168.13 254.784 168.13C254.715 168.13 254.638 168.113 254.569 168.087C254.294 167.984 254.156 167.752 254.156 167.374C254.156 166.969 254.311 166.617 254.629 166.316C255.111 165.877 255.773 165.654 256.616 165.654C257.08 165.654 257.502 165.722 257.88 165.869C258.732 166.178 259.153 166.754 259.153 167.589C259.153 168.113 258.929 168.621 258.482 169.094C258.112 169.481 257.433 169.962 256.435 170.53C256.152 170.702 255.945 170.822 255.816 170.908C255.171 171.304 254.853 171.639 254.853 171.914H257.889V171.923Z" fill="black"/>
<path d="M266.042 171.923C266.239 171.923 266.394 171.914 266.497 171.897C266.738 171.846 266.91 171.656 267.022 171.33L267.237 170.633H267.504L267.478 172.946H262.292V172.654C262.292 172.362 262.352 172.078 262.464 171.82C262.653 171.398 263.075 170.968 263.728 170.53C264.425 170.065 264.82 169.799 264.915 169.721C265.655 169.128 266.033 168.406 266.033 167.563C266.033 167.399 266.016 167.245 265.99 167.107C265.844 166.385 265.397 166.015 264.648 166.015C264.365 166.015 264.141 166.083 263.986 166.212C263.814 166.367 263.711 166.677 263.659 167.15C263.642 167.339 263.625 167.477 263.608 167.563C263.53 167.941 263.307 168.13 262.937 168.13C262.868 168.13 262.791 168.113 262.722 168.087C262.447 167.984 262.309 167.752 262.309 167.374C262.309 166.969 262.464 166.617 262.782 166.316C263.264 165.877 263.926 165.654 264.769 165.654C265.233 165.654 265.655 165.722 266.033 165.869C266.884 166.178 267.306 166.754 267.306 167.589C267.306 168.113 267.082 168.621 266.635 169.094C266.265 169.481 265.586 169.962 264.588 170.53C264.304 170.702 264.098 170.822 263.969 170.908C263.324 171.304 263.006 171.639 263.006 171.914H266.042V171.923Z" fill="black"/>
<path d="M66.8995 66.7619C66.8995 71.8101 67.3553 75.7489 68.2497 78.5869C69.1527 81.4249 70.2965 83.5405 71.6983 84.9423C73.0915 86.3355 74.6051 87.1955 76.2219 87.5137C77.8473 87.8319 79.3265 87.9867 80.6853 87.9867C78.6127 90.1454 76.9873 92.3298 75.8177 94.54C74.6481 96.7502 73.7021 99.1582 72.9797 101.773C70.0041 100.328 67.2951 98.711 64.8441 96.905C62.3931 95.099 60.2775 92.8544 58.5058 90.1453C56.7342 87.4449 55.341 84.2027 54.3434 80.4187C53.3458 76.6347 52.8384 72.0853 52.8384 66.7705V6.3554C52.8384 4.644 52.5202 3.25078 51.8924 2.16718C51.5312 1.62538 51.17 1.13518 50.8088 0.679382H68.9205C68.6539 1.13518 68.3357 1.62538 67.9745 2.16718C67.7079 2.62298 67.4585 3.20779 67.2349 3.92159C67.0113 4.64399 66.8995 5.4524 66.8995 6.3554V66.7619Z" fill="black"/>
<path d="M111.594 63.5197C110.966 62.9779 110.398 62.6167 109.9 62.4361C109.401 62.2555 108.885 62.1695 108.343 62.1695C107.621 62.1695 106.898 62.2813 106.184 62.5049C105.462 62.7285 104.628 63.0037 103.682 63.3133C102.736 63.6315 101.652 63.8981 100.439 64.1217C99.2269 64.3453 97.7563 64.4571 96.0449 64.4571C91.9943 64.4571 88.7435 63.6917 86.3183 62.1609C83.8845 60.6301 81.9925 58.7811 80.6423 56.6225C79.292 54.4639 78.389 52.2107 77.9418 49.8629C77.4946 47.5237 77.2625 45.5371 77.2625 43.9203V20.4078C77.2625 18.7824 77.486 16.8302 77.9418 14.5254C78.389 12.2292 79.292 10.0018 80.6423 7.83462C81.9925 5.67601 83.8845 3.82701 86.3183 2.2962C88.7521 0.7654 91.9943 0 96.0449 0C99.3731 0 101.927 0.386998 103.682 1.1524C105.436 1.9178 106.95 2.3048 108.205 2.3048C109.375 2.3048 110.502 1.8146 111.585 0.816999V21.629C110.863 19.8316 109.779 18.275 108.343 16.9678C106.898 15.6606 105.393 14.6028 103.819 13.7944C102.246 12.986 100.732 12.3754 99.2957 11.9712C97.8509 11.567 96.7759 11.3606 96.0535 11.3606C94.9699 11.3606 94.1185 11.6788 93.4821 12.3066C92.8543 12.9344 92.3813 13.7514 92.0631 14.7404C91.7449 15.7294 91.5471 16.8388 91.4525 18.0514C91.3579 19.264 91.3149 20.4594 91.3149 21.629V41.6327C91.3149 42.8969 91.3321 44.1783 91.3837 45.4855C91.4267 46.7927 91.6073 48.0053 91.9255 49.1319C92.2437 50.2585 92.7167 51.1787 93.3445 51.9011C93.9723 52.6235 94.8753 52.9847 96.0449 52.9847C96.7673 52.9847 97.8423 52.7783 99.2871 52.3741C100.723 51.9699 102.237 51.3593 103.811 50.5509C105.385 49.7425 106.898 48.6847 108.334 47.3775C109.771 46.0703 110.854 44.5223 111.577 42.7163V63.5197H111.594Z" fill="black"/>
<path d="M147.542 51.9011C149.253 51.9011 150.646 51.5829 151.73 50.9551C152.272 50.6885 152.762 50.3703 153.218 50.0091V63.6573H119.704C119.97 63.2101 120.288 62.7113 120.65 62.1695C120.916 61.7223 121.166 61.1547 121.389 60.4839C121.613 59.8045 121.725 58.9789 121.725 57.9813V6.3554C121.725 5.4524 121.613 4.64399 121.389 3.92159C121.166 3.19919 120.916 2.61438 120.65 2.16718C120.288 1.62538 119.979 1.13518 119.704 0.679382H137.273C136.912 1.13518 136.551 1.62538 136.19 2.16718C135.562 3.25078 135.244 4.644 135.244 6.3554V51.9011H147.542Z" fill="black"/>
<path d="M197.817 2.16718C197.19 3.25078 196.871 4.644 196.871 6.3554V43.9289C196.871 45.5543 196.648 47.5323 196.192 49.8715C195.736 52.2193 194.842 54.4639 193.492 56.6311C192.141 58.7897 190.249 60.6387 187.816 62.1695C185.382 63.7003 182.14 64.4657 178.089 64.4657C174.038 64.4657 170.788 63.7003 168.362 62.1695C165.929 60.6387 164.037 58.7897 162.686 56.6311C161.336 54.4725 160.433 52.2193 159.986 49.8715C159.539 47.5323 159.315 45.5457 159.315 43.9289V6.3554C159.315 5.4524 159.203 4.64399 158.98 3.92159C158.756 3.19919 158.507 2.61438 158.24 2.16718C157.879 1.62538 157.569 1.13518 157.294 0.679382H175.406C175.045 1.13518 174.683 1.62538 174.322 2.16718C173.694 3.25078 173.376 4.644 173.376 6.3554V41.6241C173.376 42.8883 173.393 44.1697 173.445 45.4769C173.488 46.7841 173.669 47.9967 173.987 49.1233C174.305 50.2499 174.778 51.1701 175.406 51.8925C176.034 52.6149 176.937 52.9761 178.106 52.9761C179.276 52.9761 180.179 52.6149 180.807 51.8925C181.434 51.1701 181.907 50.2499 182.226 49.1233C182.544 47.9967 182.716 46.7841 182.767 45.4769C182.81 44.1697 182.836 42.8883 182.836 41.6241V6.3554C182.836 5.4524 182.724 4.64399 182.501 3.92159C182.277 3.19919 182.028 2.61438 181.761 2.16718C181.4 1.62538 181.09 1.13518 180.815 0.679382H198.927C198.531 1.12658 198.17 1.62538 197.817 2.16718Z" fill="black"/>
<path d="M225.114 0.679382C227.995 0.679382 230.678 0.928783 233.155 1.41898C235.632 1.91779 237.79 2.82079 239.639 4.11939C241.488 5.42659 242.925 7.2068 243.965 9.46C244.997 11.7132 245.522 14.5942 245.522 18.1116C245.522 21.5344 244.825 24.3982 243.423 26.6944C242.022 28.9906 240.198 30.8138 237.954 32.164C243.269 34.959 247.526 38.9925 250.725 44.2557C253.924 49.5275 255.524 55.4013 255.524 61.8943C255.524 66.4867 254.664 70.8383 252.952 74.9319C251.241 79.0341 248.919 82.5859 245.995 85.6045C243.062 88.6231 239.639 91.014 235.726 92.7684C231.805 94.5228 227.591 95.4 223.093 95.4C218.948 95.4 215.164 94.8152 211.741 93.6456C208.318 92.476 205.257 90.9452 202.548 89.0532C199.847 87.1612 197.482 85.0627 195.453 82.7665C193.423 80.4703 191.737 78.1913 190.387 75.9381C192.907 75.2157 195.272 74.2525 197.482 73.0313C199.692 71.8187 201.92 70.0385 204.173 67.6907C204.44 69.5827 205.076 71.4317 206.065 73.2291C207.054 75.0265 208.361 76.6777 209.987 78.1655C211.612 79.6533 213.521 80.8487 215.731 81.7431C217.942 82.6461 220.393 83.0933 223.093 83.0933C225.793 83.0933 228.313 82.6203 230.661 81.6743C233 80.7283 235.056 79.3265 236.81 77.4861C238.564 75.6371 239.94 73.4097 240.929 70.7953C241.918 68.1809 242.417 65.2053 242.417 61.8771C242.417 58.5489 241.918 55.4099 240.929 52.4859C239.94 49.5619 238.564 46.9905 236.81 44.7803C235.056 42.5701 233 40.8415 230.661 39.5773C228.313 38.313 225.793 37.6852 223.093 37.6852V57.9555C223.093 59.3057 223.411 60.6129 224.039 61.8771C224.4 62.5049 224.761 63.0897 225.123 63.6315H207.149C207.415 63.0897 207.733 62.5049 208.095 61.8771C208.275 61.3353 208.473 60.7247 208.705 60.0539C208.929 59.3745 209.041 58.6779 209.041 57.9555V6.3554C209.041 5.633 208.929 4.93639 208.705 4.25699C208.482 3.57759 208.275 2.97559 208.095 2.43379C207.733 1.80599 207.415 1.22118 207.149 0.679382H225.114ZM223.084 28.38C224.71 28.38 226.06 28.1134 227.135 27.5716C228.219 27.0298 229.07 26.3332 229.706 25.4732C230.334 24.6218 230.79 23.6758 231.057 22.6352C231.323 21.6032 231.461 20.5368 231.461 19.4618C231.461 17.028 230.85 15.0242 229.638 13.4504C228.425 11.8766 226.232 11.0854 223.084 11.0854V28.38Z" fill="black"/>
<path d="M159.427 161.457C159.023 161.293 158.644 161.121 158.275 160.958C158.335 162.024 158.3 162.85 158.18 163.314C158.12 163.538 158.034 163.77 157.931 164.002C158.679 164.303 159.513 164.622 160.45 164.94C160.958 164.08 161.534 163.263 162.119 162.454C161.164 162.136 160.261 161.801 159.427 161.457ZM159.427 161.457C159.023 161.293 158.644 161.121 158.275 160.958C158.335 162.024 158.3 162.85 158.18 163.314C158.12 163.538 158.034 163.77 157.931 164.002C158.679 164.303 159.513 164.622 160.45 164.94C160.958 164.08 161.534 163.263 162.119 162.454C161.164 162.136 160.261 161.801 159.427 161.457ZM149.589 129.43C148.754 132.139 145.676 135.923 140.92 139.561C140.817 139.647 140.705 139.742 140.584 139.819C140.731 139.965 140.868 140.103 141.014 140.258C141.479 140.731 141.909 141.221 142.33 141.72C142.433 141.625 142.537 141.53 142.64 141.436C149.606 135.055 149.821 129.129 149.821 129.129L149.589 129.43ZM121.664 133.051C136.405 127.263 148.109 123.195 149.64 127.108C150.044 127.117 150.509 127.676 151.008 128.63C153.063 132.604 155.695 143.543 157.157 152.177C158.455 151.764 159.986 151.42 161.723 151.145L154.645 126.627C154.078 126.248 153.648 125.853 153.424 125.474C153.244 125.173 153.201 124.889 153.295 124.614C153.398 124.279 153.596 123.995 153.828 123.746L153.613 123.006L146.303 97.6446C146.303 97.6446 141.96 93.0522 111.68 104.585C111.68 104.585 87.7888 114.63 81.9924 123.144L110.553 187.076C110.553 187.076 127.745 190.207 148.075 179.998C150.001 179.035 151.962 177.943 153.94 176.713C153.777 173.953 153.777 171.029 153.82 168.535C152.306 169.713 150.5 170.9 148.531 172.043C145.486 173.806 142.046 175.44 138.684 176.765C129.791 180.274 124.236 178.339 124.236 178.339C124.236 178.339 130.213 177.023 137.101 173.626C141.883 171.269 146.518 167.322 148.918 165.12C149.872 164.252 150.466 163.658 150.569 163.546C150.449 163.607 149.881 163.942 148.961 164.45C146.914 165.576 143.156 167.589 138.899 169.481C132.492 172.344 118.723 177.195 114.931 176.154C110.321 174.881 102.056 155.884 102.056 155.884C102.159 155.884 104.696 155.875 108.764 155.316C109.487 155.213 110.278 155.093 111.095 154.946C114.758 154.327 119.273 153.278 124.236 151.532C124.941 151.291 125.655 151.033 126.377 150.75C125.784 149.915 125.225 149.064 124.692 148.17C123.978 148.428 123.273 148.677 122.585 148.918C118.414 150.337 114.466 151.377 110.992 152.005C110.441 152.108 109.908 152.212 109.383 152.289C103.071 153.261 98.6249 152.779 97.7649 150.603C96.2341 146.699 106.932 138.847 121.664 133.051ZM84.5552 123.453C84.28 123.273 84.0994 123.049 84.0564 122.748C83.6436 119.919 88.623 117.536 90.5409 116.479C94.7119 114.174 99.1237 112.247 103.415 110.166C113.511 105.307 123.832 100.603 134.9 98.5046C137.316 98.0488 141.264 97.0168 143.637 98.0058C143.173 100.233 140.378 102.727 138.606 104.069C135.227 106.623 131.494 108.739 127.77 110.742C118.319 115.834 108.584 120.693 97.9283 122.619C96.4147 122.894 86.8858 124.924 84.5552 123.453ZM159.427 161.457C159.023 161.293 158.644 161.121 158.275 160.958C158.335 162.024 158.3 162.85 158.18 163.314C158.12 163.538 158.034 163.77 157.931 164.002C158.679 164.303 159.513 164.622 160.45 164.94C160.958 164.08 161.534 163.263 162.119 162.454C161.164 162.136 160.261 161.801 159.427 161.457ZM160.45 164.94C160.958 164.08 161.534 163.263 162.119 162.454C162.772 161.525 163.478 160.631 164.209 159.78L163.306 156.641C161.912 158.154 160.622 159.754 159.427 161.457C159.023 161.293 158.644 161.121 158.275 160.958C158.335 162.024 158.3 162.85 158.18 163.314C158.12 163.538 158.034 163.77 157.931 164.002C157.681 164.553 157.303 165.129 156.813 165.722C156.692 166.221 156.787 166.754 157.096 167.184C158.128 168.638 159.221 170.005 160.382 171.312C160.734 170.934 161.095 170.538 161.448 170.134C160.837 169.412 160.287 168.664 159.737 167.89C159.384 167.391 159.367 166.711 159.685 166.17C159.926 165.748 160.175 165.344 160.45 164.94ZM149.589 129.43C148.754 132.139 145.676 135.923 140.92 139.561C140.817 139.647 140.705 139.742 140.584 139.819C140.731 139.965 140.868 140.103 141.014 140.258C141.479 140.731 141.909 141.221 142.33 141.72C142.433 141.625 142.537 141.53 142.64 141.436C149.606 135.055 149.821 129.129 149.821 129.129L149.589 129.43ZM159.427 161.457C159.023 161.293 158.644 161.121 158.275 160.958C158.335 162.024 158.3 162.85 158.18 163.314C158.584 162.687 159.006 162.067 159.427 161.457Z" fill="black"/>
<path d="M147.353 148.238C146.226 146.166 144.936 144.231 143.474 142.433C143.216 142.098 142.941 141.771 142.64 141.436C142.262 140.971 141.857 140.533 141.436 140.094C141.273 139.914 141.101 139.742 140.911 139.561C139.535 138.125 138.013 136.8 136.371 135.579C135.915 135.235 135.313 135.184 134.814 135.459C130.161 138.004 126.197 141.333 122.92 145.443C122.645 145.762 122.387 146.097 122.137 146.432C121.793 146.888 121.759 147.499 122.034 147.998C122.12 148.152 122.198 148.307 122.31 148.462C122.396 148.617 122.49 148.772 122.585 148.926C123.092 149.829 123.642 150.698 124.236 151.541C126.627 155.032 129.551 158.077 132.999 160.657C133.455 161.001 134.066 161.052 134.565 160.777C139.578 158.034 143.801 154.379 147.241 149.804C147.576 149.356 147.619 148.737 147.353 148.238ZM146.45 149.15C143.474 153.166 139.802 156.365 135.39 158.722C134.952 158.963 134.418 158.911 133.997 158.593C131.047 156.348 128.502 153.734 126.377 150.758C125.784 149.924 125.225 149.073 124.692 148.178C124.683 148.152 124.657 148.118 124.64 148.092C124.425 147.757 124.236 147.43 124.047 147.095C123.797 146.639 123.823 146.097 124.116 145.701C124.245 145.521 124.391 145.332 124.528 145.151C127.418 141.393 130.961 138.374 135.158 136.13C135.597 135.889 136.147 135.94 136.56 136.259C137.996 137.351 139.346 138.538 140.576 139.81C140.722 139.957 140.86 140.094 141.006 140.249C141.47 140.722 141.9 141.212 142.322 141.711C142.571 142.012 142.821 142.304 143.061 142.605C144.343 144.196 145.487 145.925 146.51 147.757C146.768 148.204 146.742 148.746 146.45 149.15Z" fill="black"/>
<path d="M130.419 160.709C128.45 159.367 126.317 158.352 124.055 157.69C123.212 157.432 122.344 157.225 121.449 157.071C121.131 157.019 120.796 157.157 120.607 157.423C119.729 158.722 118.99 160.072 118.396 161.491C117.743 163.048 117.27 164.69 116.969 166.402C116.917 166.72 117.055 167.047 117.321 167.236C120.056 169.094 123.04 170.306 126.3 170.874C126.618 170.934 126.945 170.788 127.134 170.521C129 167.795 130.213 164.802 130.772 161.56C130.832 161.225 130.694 160.898 130.419 160.709ZM126.781 170.272C126.618 170.513 126.317 170.624 126.033 170.573C123.083 170.04 120.374 168.947 117.889 167.27C117.64 167.116 117.511 166.815 117.554 166.531C117.889 164.536 118.508 162.669 119.42 160.906C119.798 160.15 120.237 159.419 120.727 158.705C120.89 158.464 121.191 158.352 121.475 158.404C121.914 158.49 122.344 158.567 122.774 158.688C125.225 159.272 127.504 160.279 129.619 161.706C129.869 161.87 129.998 162.162 129.955 162.446C129.482 165.284 128.424 167.907 126.781 170.272Z" fill="black"/>
<path d="M190.8 166.307C189.828 166.393 188.83 166.436 187.807 166.453C187.592 166.462 187.377 166.462 187.162 166.462C186.569 167.477 185.924 168.449 185.244 169.386H185.365C185.528 169.386 185.709 169.386 185.889 169.395C187.007 169.395 188.065 169.369 189.088 169.309C189.716 169.274 190.327 169.223 190.912 169.154C191.41 168.13 191.789 167.124 191.995 166.195C191.591 166.247 191.204 166.29 190.8 166.307ZM208.43 160.64C207.346 161.758 205.506 162.841 203.107 163.77C202.057 164.174 200.905 164.544 199.658 164.88C199.684 165.636 199.684 166.402 199.666 167.159C200.974 166.66 202.126 166.101 203.115 165.516C207.286 163.125 208.774 160.485 208.774 160.485L208.43 160.64ZM190.8 166.307C189.828 166.393 188.83 166.436 187.807 166.453C187.592 166.462 187.377 166.462 187.162 166.462C186.569 167.477 185.924 168.449 185.244 169.386H185.365C185.528 169.386 185.709 169.386 185.889 169.395C187.007 169.395 188.065 169.369 189.088 169.309C189.716 169.274 190.327 169.223 190.912 169.154C191.41 168.13 191.789 167.124 191.995 166.195C191.591 166.247 191.204 166.29 190.8 166.307ZM208.43 160.64C207.346 161.758 205.506 162.841 203.107 163.77C202.057 164.174 200.905 164.544 199.658 164.88C199.684 165.636 199.684 166.402 199.666 167.159C200.974 166.66 202.126 166.101 203.115 165.516C207.286 163.125 208.774 160.485 208.774 160.485L208.43 160.64ZM190.8 166.307C189.828 166.393 188.83 166.436 187.807 166.453C187.592 166.462 187.377 166.462 187.162 166.462C186.569 167.477 185.924 168.449 185.244 169.386H185.365C185.528 169.386 185.709 169.386 185.889 169.395C187.007 169.395 188.065 169.369 189.088 169.309C189.716 169.274 190.327 169.223 190.912 169.154C191.41 168.13 191.789 167.124 191.995 166.195C191.591 166.247 191.204 166.29 190.8 166.307ZM208.43 160.64C207.346 161.758 205.506 162.841 203.107 163.77C202.057 164.174 200.905 164.544 199.658 164.88C199.684 165.636 199.684 166.402 199.666 167.159C200.974 166.66 202.126 166.101 203.115 165.516C207.286 163.125 208.774 160.485 208.774 160.485L208.43 160.64ZM190.8 166.307C189.828 166.393 188.83 166.436 187.807 166.453C187.592 166.462 187.377 166.462 187.162 166.462C186.569 167.477 185.924 168.449 185.244 169.386H185.365C185.528 169.386 185.709 169.386 185.889 169.395C187.007 169.395 188.065 169.369 189.088 169.309C189.716 169.274 190.327 169.223 190.912 169.154C191.41 168.13 191.789 167.124 191.995 166.195C191.591 166.247 191.204 166.29 190.8 166.307ZM208.43 160.64C207.346 161.758 205.506 162.841 203.107 163.77C202.057 164.174 200.905 164.544 199.658 164.88C199.684 165.636 199.684 166.402 199.666 167.159C200.974 166.66 202.126 166.101 203.115 165.516C207.286 163.125 208.774 160.485 208.774 160.485L208.43 160.64ZM190.8 166.307C189.828 166.393 188.83 166.436 187.807 166.453C187.592 166.462 187.377 166.462 187.162 166.462C186.569 167.477 185.924 168.449 185.244 169.386H185.365C185.528 169.386 185.709 169.386 185.889 169.395C187.007 169.395 188.065 169.369 189.088 169.309C189.716 169.274 190.327 169.223 190.912 169.154C191.41 168.13 191.789 167.124 191.995 166.195C191.591 166.247 191.204 166.29 190.8 166.307ZM208.43 160.64C207.346 161.758 205.506 162.841 203.107 163.77C202.057 164.174 200.905 164.544 199.658 164.88C199.684 165.636 199.684 166.402 199.666 167.159C200.974 166.66 202.126 166.101 203.115 165.516C207.286 163.125 208.774 160.485 208.774 160.485L208.43 160.64ZM190.8 166.307C189.828 166.393 188.83 166.436 187.807 166.453C187.592 166.462 187.377 166.462 187.162 166.462C186.569 167.477 185.924 168.449 185.244 169.386H185.365C185.528 169.386 185.709 169.386 185.889 169.395C187.007 169.395 188.065 169.369 189.088 169.309C189.716 169.274 190.327 169.223 190.912 169.154C191.41 168.13 191.789 167.124 191.995 166.195C191.591 166.247 191.204 166.29 190.8 166.307ZM208.43 160.64C207.346 161.758 205.506 162.841 203.107 163.77C202.057 164.174 200.905 164.544 199.658 164.88C199.684 165.636 199.684 166.402 199.666 167.159C200.974 166.66 202.126 166.101 203.115 165.516C207.286 163.125 208.774 160.485 208.774 160.485L208.43 160.64ZM208.43 160.64C207.346 161.758 205.506 162.841 203.107 163.77C202.057 164.174 200.905 164.544 199.658 164.88C199.684 165.636 199.684 166.402 199.666 167.159C200.974 166.66 202.126 166.101 203.115 165.516C207.286 163.125 208.774 160.485 208.774 160.485L208.43 160.64ZM187.798 166.453C187.583 166.462 187.368 166.462 187.153 166.462C186.56 167.477 185.915 168.449 185.236 169.386H185.356C185.519 169.386 185.7 169.386 185.881 169.395C186.999 169.395 188.056 169.369 189.08 169.309C189.708 169.274 190.318 169.223 190.903 169.154C191.402 168.13 191.78 167.124 191.987 166.195C191.591 166.247 191.204 166.281 190.8 166.299C189.819 166.393 188.822 166.436 187.798 166.453ZM186.173 121.166C186.173 121.166 164.114 119.42 153.613 123.006C152.745 123.307 151.962 123.634 151.274 124.004L151.016 128.63L148.969 164.467L148.918 165.129L148.522 172.052L148.066 180.007L147.267 193.922C147.267 193.922 164.957 207.587 193.225 204.397C193.225 204.397 204.328 202.032 206.77 197.861L220.109 130.909C220.117 130.901 218.372 124.821 186.173 121.166ZM200.501 194.687C197.611 197.912 186.508 198.669 176.997 197.68C167.485 196.691 163.443 192.434 163.443 192.434C163.443 192.434 169.369 194.008 177.048 194.154C184.72 194.309 193.672 191.385 193.672 191.385C193.672 191.385 187.549 191.72 180.549 191.316C173.548 190.912 159.083 188.891 156.193 186.216C154.826 184.943 154.207 181.03 153.949 176.713C153.785 173.953 153.785 171.029 153.828 168.535C153.889 164.966 154.069 162.308 154.069 162.308C154.069 162.308 155.402 162.996 157.802 163.951C157.853 163.976 157.896 163.985 157.948 164.002C158.696 164.303 159.53 164.622 160.468 164.94C160.975 164.08 161.551 163.263 162.136 162.454C161.181 162.136 160.278 161.801 159.453 161.457C159.049 161.293 158.67 161.121 158.3 160.958C154.628 159.281 152.521 157.423 152.702 155.652C152.848 154.224 154.473 153.046 157.182 152.169C158.481 151.756 160.012 151.412 161.749 151.137C164.183 150.758 167.029 150.526 170.151 150.483C171.39 150.457 172.68 150.474 174.004 150.509C176.55 150.569 179.233 150.75 181.993 151.033C197.749 152.659 210.004 154.422 209.582 158.61C212.283 160.158 203.399 191.454 200.501 194.687ZM210.331 133.077C206.16 133.799 201.877 133.971 197.646 134.031C186.913 134.212 176.025 134.057 165.688 130.866C164.449 130.488 157.638 128.605 154.654 126.618C154.086 126.24 153.656 125.844 153.433 125.466C153.252 125.165 153.209 124.881 153.304 124.606C153.407 124.27 153.605 123.986 153.837 123.737C155.514 121.931 160.012 122.06 161.938 122.017C166.703 121.888 171.51 122.198 176.274 122.327C187.472 122.645 198.798 123.221 209.591 126.429C211.956 127.134 215.929 128.037 217.58 130.006C216.144 131.769 212.524 132.698 210.331 133.077ZM203.107 163.761C202.057 164.166 200.905 164.535 199.658 164.871C199.684 165.628 199.684 166.393 199.666 167.15C200.974 166.651 202.126 166.092 203.115 165.507C207.286 163.116 208.774 160.476 208.774 160.476L208.43 160.631C207.346 161.758 205.506 162.841 203.107 163.761ZM187.798 166.453C187.583 166.462 187.368 166.462 187.153 166.462C186.56 167.477 185.915 168.449 185.236 169.386H185.356C185.519 169.386 185.7 169.386 185.881 169.395C186.999 169.395 188.056 169.369 189.08 169.309C189.708 169.274 190.318 169.223 190.903 169.154C191.402 168.13 191.78 167.124 191.987 166.195C191.591 166.247 191.204 166.281 190.8 166.299C189.819 166.393 188.822 166.436 187.798 166.453ZM190.8 166.307C189.828 166.393 188.83 166.436 187.807 166.453C187.592 166.462 187.377 166.462 187.162 166.462C186.569 167.477 185.924 168.449 185.244 169.386H185.365C185.528 169.386 185.709 169.386 185.889 169.395C187.007 169.395 188.065 169.369 189.088 169.309C189.716 169.274 190.327 169.223 190.912 169.154C191.41 168.13 191.789 167.124 191.995 166.195C191.591 166.247 191.204 166.29 190.8 166.307ZM208.43 160.64C207.346 161.758 205.506 162.841 203.107 163.77C202.057 164.174 200.905 164.544 199.658 164.88C199.684 165.636 199.684 166.402 199.666 167.159C200.974 166.66 202.126 166.101 203.115 165.516C207.286 163.125 208.774 160.485 208.774 160.485L208.43 160.64ZM190.8 166.307C189.828 166.393 188.83 166.436 187.807 166.453C187.592 166.462 187.377 166.462 187.162 166.462C186.569 167.477 185.924 168.449 185.244 169.386H185.365C185.528 169.386 185.709 169.386 185.889 169.395C187.007 169.395 188.065 169.369 189.088 169.309C189.716 169.274 190.327 169.223 190.912 169.154C191.41 168.13 191.789 167.124 191.995 166.195C191.591 166.247 191.204 166.29 190.8 166.307ZM208.43 160.64C207.346 161.758 205.506 162.841 203.107 163.77C202.057 164.174 200.905 164.544 199.658 164.88C199.684 165.636 199.684 166.402 199.666 167.159C200.974 166.66 202.126 166.101 203.115 165.516C207.286 163.125 208.774 160.485 208.774 160.485L208.43 160.64ZM190.8 166.307C189.828 166.393 188.83 166.436 187.807 166.453C187.592 166.462 187.377 166.462 187.162 166.462C186.569 167.477 185.924 168.449 185.244 169.386H185.365C185.528 169.386 185.709 169.386 185.889 169.395C187.007 169.395 188.065 169.369 189.088 169.309C189.716 169.274 190.327 169.223 190.912 169.154C191.41 168.13 191.789 167.124 191.995 166.195C191.591 166.247 191.204 166.29 190.8 166.307ZM208.43 160.64C207.346 161.758 205.506 162.841 203.107 163.77C202.057 164.174 200.905 164.544 199.658 164.88C199.684 165.636 199.684 166.402 199.666 167.159C200.974 166.66 202.126 166.101 203.115 165.516C207.286 163.125 208.774 160.485 208.774 160.485L208.43 160.64ZM190.8 166.307C189.828 166.393 188.83 166.436 187.807 166.453C187.592 166.462 187.377 166.462 187.162 166.462C186.569 167.477 185.924 168.449 185.244 169.386H185.365C185.528 169.386 185.709 169.386 185.889 169.395C187.007 169.395 188.065 169.369 189.088 169.309C189.716 169.274 190.327 169.223 190.912 169.154C191.41 168.13 191.789 167.124 191.995 166.195C191.591 166.247 191.204 166.29 190.8 166.307ZM208.43 160.64C207.346 161.758 205.506 162.841 203.107 163.77C202.057 164.174 200.905 164.544 199.658 164.88C199.684 165.636 199.684 166.402 199.666 167.159C200.974 166.66 202.126 166.101 203.115 165.516C207.286 163.125 208.774 160.485 208.774 160.485L208.43 160.64ZM190.8 166.307C189.828 166.393 188.83 166.436 187.807 166.453C187.592 166.462 187.377 166.462 187.162 166.462C186.569 167.477 185.924 168.449 185.244 169.386H185.365C185.528 169.386 185.709 169.386 185.889 169.395C187.007 169.395 188.065 169.369 189.088 169.309C189.716 169.274 190.327 169.223 190.912 169.154C191.41 168.13 191.789 167.124 191.995 166.195C191.591 166.247 191.204 166.29 190.8 166.307ZM208.43 160.64C207.346 161.758 205.506 162.841 203.107 163.77C202.057 164.174 200.905 164.544 199.658 164.88C199.684 165.636 199.684 166.402 199.666 167.159C200.974 166.66 202.126 166.101 203.115 165.516C207.286 163.125 208.774 160.485 208.774 160.485L208.43 160.64ZM159.427 161.457C158.997 162.067 158.584 162.678 158.18 163.314C158.12 163.538 158.034 163.77 157.931 164.002C158.679 164.303 159.513 164.622 160.45 164.94C160.958 164.08 161.534 163.263 162.119 162.454C161.164 162.136 160.261 161.801 159.427 161.457ZM190.8 166.307C189.828 166.393 188.83 166.436 187.807 166.453C187.592 166.462 187.377 166.462 187.162 166.462C186.569 167.477 185.924 168.449 185.244 169.386H185.365C185.528 169.386 185.709 169.386 185.889 169.395C187.007 169.395 188.065 169.369 189.088 169.309C189.716 169.274 190.327 169.223 190.912 169.154C191.41 168.13 191.789 167.124 191.995 166.195C191.591 166.247 191.204 166.29 190.8 166.307ZM208.43 160.64C207.346 161.758 205.506 162.841 203.107 163.77C202.057 164.174 200.905 164.544 199.658 164.88C199.684 165.636 199.684 166.402 199.666 167.159C200.974 166.66 202.126 166.101 203.115 165.516C207.286 163.125 208.774 160.485 208.774 160.485L208.43 160.64Z" fill="black"/>
<path d="M188.177 163.718C184.324 158.343 179.594 153.949 173.978 150.509C173.608 150.268 173.213 150.044 172.834 149.821C172.224 149.477 171.467 149.511 170.899 149.915C170.641 150.105 170.375 150.294 170.125 150.483C167.631 152.341 165.361 154.396 163.297 156.641C161.904 158.154 160.614 159.754 159.418 161.457C158.988 162.067 158.576 162.678 158.171 163.314C158.042 163.529 157.896 163.744 157.776 163.959C157.501 164.389 157.243 164.819 156.993 165.258C156.899 165.413 156.838 165.567 156.804 165.731C156.684 166.23 156.778 166.763 157.088 167.193C158.12 168.646 159.212 170.014 160.373 171.321C163.83 175.2 167.855 178.459 172.422 181.091C173.041 181.435 173.798 181.4 174.374 180.996C178.889 177.754 182.733 173.901 185.881 169.403C186.56 168.449 187.196 167.468 187.798 166.453C187.962 166.195 188.117 165.929 188.271 165.653C188.624 165.051 188.581 164.286 188.177 163.718ZM185.244 169.386C182.38 173.428 178.906 176.937 174.838 179.895C174.331 180.265 173.651 180.308 173.118 180.016C168.56 177.436 164.673 174.142 161.457 170.134C160.846 169.412 160.296 168.664 159.745 167.89C159.393 167.391 159.375 166.711 159.694 166.17C159.934 165.757 160.184 165.352 160.45 164.948C160.958 164.088 161.534 163.271 162.119 162.463C162.772 161.534 163.478 160.64 164.209 159.788C166.565 156.967 169.274 154.465 172.31 152.246C172.817 151.876 173.497 151.833 174.03 152.143C179.396 155.179 183.851 159.221 187.403 164.26C187.747 164.768 187.773 165.438 187.454 165.997C187.36 166.152 187.265 166.316 187.153 166.471C186.56 167.477 185.924 168.448 185.244 169.386Z" fill="black"/>
<path d="M203.106 163.761C203.055 162.738 202.978 161.732 202.857 160.708C202.771 160.003 202.289 159.436 201.61 159.238C197.155 157.896 192.623 157.415 188.022 157.802C189.381 159.599 190.55 161.319 191.127 162.566C191.591 163.564 191.41 164.871 190.808 166.316C190.413 167.279 189.819 168.302 189.097 169.326C187.678 171.347 185.777 173.342 183.928 174.83C183.954 174.993 183.98 175.165 183.997 175.329C189.269 177.092 194.627 177.625 200.096 176.971C200.784 176.885 201.369 176.404 201.567 175.724C202.582 172.362 203.098 168.956 203.124 165.525C203.124 164.931 203.115 164.346 203.106 163.761ZM198.669 175.251C198.54 175.836 198.17 176.266 197.731 176.343C194.223 176.911 190.791 176.438 187.411 174.907C187.403 174.752 187.386 174.606 187.36 174.469C188.641 173.041 189.974 171.089 190.903 169.162C191.402 168.139 191.78 167.133 191.987 166.204C192.184 165.267 192.21 164.407 191.987 163.719C191.617 162.626 190.86 161.113 189.991 159.547C192.941 159.212 195.857 159.633 198.703 160.795C199.133 160.975 199.443 161.483 199.503 162.093C199.589 163.022 199.649 163.951 199.658 164.88C199.684 165.636 199.684 166.402 199.666 167.159C199.58 169.876 199.254 172.577 198.669 175.251Z" fill="black"/>
<path d="M168.707 101.007C165.757 99.4678 163.607 96.3202 162.996 92.5276C162.386 96.3202 160.236 99.4678 157.286 101.007C156.71 101.308 155.282 101.764 155.282 101.764C155.282 101.764 156.71 102.228 157.286 102.521C160.236 104.06 162.386 107.208 162.996 111C163.607 107.208 165.757 104.06 168.707 102.521C169.283 102.22 170.71 101.764 170.71 101.764C170.71 101.764 169.283 101.3 168.707 101.007Z" fill="#010202"/>
<path d="M172.499 95.1764C171.579 94.6948 170.9 93.7058 170.71 92.519C170.521 93.7058 169.85 94.6948 168.921 95.1764C168.741 95.271 168.294 95.4172 168.294 95.4172C168.294 95.4172 168.741 95.5634 168.921 95.658C169.842 96.1396 170.521 97.1286 170.71 98.3154C170.9 97.1286 171.57 96.1396 172.499 95.658C172.68 95.5634 173.127 95.4172 173.127 95.4172C173.127 95.4172 172.68 95.271 172.499 95.1764Z" fill="#010202"/>
<path d="M212.532 204.551C211.259 203.889 210.331 202.53 210.073 200.896C209.815 202.53 208.886 203.889 207.613 204.551C207.364 204.68 206.753 204.878 206.753 204.878C206.753 204.878 207.372 205.076 207.613 205.205C208.886 205.867 209.815 207.226 210.073 208.86C210.331 207.226 211.259 205.867 212.532 205.205C212.782 205.076 213.392 204.878 213.392 204.878C213.392 204.878 212.782 204.68 212.532 204.551Z" fill="#010202"/>
<path d="M127.573 141.72C127.573 141.72 121.94 146.785 129.963 155.032L133.997 158.593L130.789 157.673L122.309 148.462L122.929 145.443L127.573 141.72Z" fill="black"/>
<path d="M117.889 167.262C117.889 167.262 119.532 158.042 125.216 159.436C130.419 160.708 125.216 158.386 125.216 158.386L121.458 157.071L120.736 158.696L118.973 160.261L117.554 164.484L116.978 166.402L117.33 167.236L117.889 167.262Z" fill="black"/>
</svg>
