<svg width="112" height="112" viewBox="0 0 112 112" fill="none" xmlns="http://www.w3.org/2000/svg">
<rect width="112" height="112" fill="#F1F1F1"/>
<path d="M71 45.9998H65.7167L62.6667 42.6665H52.6667V45.9998H61.2L64.25 49.3332H71V69.3332H44.3333V54.3332H41V69.3332C41 71.1665 42.5 72.6665 44.3333 72.6665H71C72.8333 72.6665 74.3333 71.1665 74.3333 69.3332V49.3332C74.3333 47.4998 72.8333 45.9998 71 45.9998ZM49.3333 59.3332C49.3333 63.9332 53.0667 67.6665 57.6667 67.6665C62.2667 67.6665 66 63.9332 66 59.3332C66 54.7332 62.2667 50.9998 57.6667 50.9998C53.0667 50.9998 49.3333 54.7332 49.3333 59.3332ZM57.6667 54.3332C60.4167 54.3332 62.6667 56.5832 62.6667 59.3332C62.6667 62.0832 60.4167 64.3332 57.6667 64.3332C54.9167 64.3332 52.6667 62.0832 52.6667 59.3332C52.6667 56.5832 54.9167 54.3332 57.6667 54.3332ZM44.3333 45.9998H49.3333V42.6665H44.3333V37.6665H41V42.6665H36V45.9998H41V50.9998H44.3333V45.9998Z" fill="#D3D3D3"/>
</svg>
